<svg viewBox="0 0 100 100" xmlns="http://www.w3.org/2000/svg" style="overflow: visible;" width="60" height="60" x="0" y="0" filtersec="colorsf4224971453" filter="url(#M_eeCXLt5aTnzRibOieGt)"><path d="M50 0h50v50c0 27.614-22.386 50-50 50S0 77.614 0 50 22.386 0 50 0z" fill="#42707F" fill-rule="evenodd"></path><path transform="translate(15 75)" d="M0.58 0L17.50 0L26.14-16.56L26.57-16.56L34.92 0L52.13 0L37.22-25.85L51.62-49.97L34.78-49.97L26.78-34.06L26.35-34.06L18.22-49.97L1.51-49.97L15.84-25.42ZM47.45 0L61.78 0L61.78-49.97L47.45-49.97Z" fill="#fff"></path></svg>